# xmcd
#
# Track frame offsets: 
#        150
#        24681
#        48773
#        73466
#        100818
#        125065
#        147345
#        177269
#        200084
#        223611
#        247075
#        272585
#        293945
#        315446
#
# Disc length: 4513 seconds
#
# Revision: 0
# Processed by: cddbd v1.5.2PL0 Copyright (c) Steve Scherf et al.
# Submitted via: ExactAudioCopy v0.99pb4
#
DISCID=e2119f0e
DTITLE=Phu Quang - Gui mot tinh yeu - The best of Phu Quang
DYEAR=2009
DGENRE=Country
TTITLE0=01_Gui mot tinh yeu_Quang Dung (Phu Quang)
TTITLE1=02_Em oi Ha Noi pho_Hong Nhung (Phu Quang)
TTITLE2=03_Dieu gian di_Tan Minh (Phu Quang)
TTITLE3=04_Dau phai boi mua thu_My Hanh (Phu Quang)
TTITLE4=05_Mo ve noi xa lam_Dam Vinh Hung (Phu Quang)
TTITLE5=06_Noi nho mua dong_Lam Phuong (Phu Quang)
TTITLE6=07_Mua thu giau em_Tung Duong (Phu Quang)
TTITLE7=08_Lang dang chieu dong Ha Noi_Nguyen Ngoc Anh (Phu Quang)
TTITLE8=09_Chieu phu Tay Ho_Tung Duong (Phu Quang)
TTITLE9=10_Im lang dem Ha Noi_Nguyen Ngoc Anh (Phu Quang)
TTITLE10=11_Ha Noi ngay tro ve_Tan Minh (Phu Quang)
TTITLE11=12_Me_Dam Vinh Hung (Phu Quang)
TTITLE12=13_Chuyen ke ve tinh yeu_Doc tau violin-piano_Bui Cong Duy-Vi
TTITLE12=et Anh (Phu Quang)
TTITLE13=14_Tinh yeu cua bien_Doc tau flute_Hong Nhung-Dan nhac giao h
TTITLE13=uong VN (Phu Quang)
EXTD=
EXTT0=
EXTT1=
EXTT2=
EXTT3=
EXTT4=
EXTT5=
EXTT6=
EXTT7=
EXTT8=
EXTT9=
EXTT10=
EXTT11=
EXTT12=
EXTT13=
PLAYORDER=
